<svg width="80" height="80" viewBox="0 0 80 80" fill="none" xmlns="http://www.w3.org/2000/svg">
<path d="M46.4769 31.9366C46.4769 28.8138 44.2562 27.0899 40.3559 27.0899H33.1815V37.1506H39.2313C43.9004 37.1365 46.4769 35.2713 46.4769 31.9366ZM72.5979 30.1279C71.2456 25.7617 71.0463 20.4063 71.2028 16.2662C71.3594 11.9565 67.9715 8 63.4164 8H16.6121C12.0427 8 8.66904 11.9706 8.82562 16.2662C8.96797 20.4063 8.78292 25.7617 7.4306 30.1279C6.06406 34.5083 3.77224 37.2778 0 37.631V41.6582C3.75801 42.0114 6.06406 44.7809 7.4306 49.1613C8.78292 53.5275 8.98221 58.8829 8.82562 63.023C8.66904 67.3327 12.0569 71.2892 16.6121 71.2892H63.4021C67.9715 71.2892 71.3452 67.3186 71.1886 63.023C71.0463 58.8829 71.2313 53.5275 72.5836 49.1613C73.9502 44.7809 76.242 42.0114 80 41.6582V37.631C76.2562 37.2778 73.9502 34.5083 72.5979 30.1279ZM41.7367 56.4807H27.8007V22.8085H41.6655C47.8292 22.8085 51.8719 26.1149 51.8719 31.2018C51.8719 34.7767 49.153 37.9702 45.6797 38.5212V38.7049C50.4057 39.2136 53.5801 42.4636 53.5801 46.9428C53.5801 52.8917 49.1246 56.4807 41.7367 56.4807ZM40.3132 41.1212H33.1815V52.1993H40.6263C45.4947 52.1993 48.0712 50.2634 48.0712 46.6179C48.0712 42.9864 45.4235 41.1212 40.3132 41.1212Z" fill="black"/>
</svg>
