<svg width="80" height="80" viewBox="0 0 80 80" fill="none" xmlns="http://www.w3.org/2000/svg">
<path d="M33.3718 8V26.1932C32.13 25.6959 29.4502 25.6352 28.1298 25.6352C18.1958 25.6352 9 30.2415 9 43.2704C9 58.8599 21.4552 60.9056 29.7932 60.9056C33.0855 60.9056 40.5288 60.5851 44.1073 59.5623V8H33.3718ZM51.2644 8V18.5811H62V8H51.2644ZM51.2644 25.6352V56.3246C51.2644 61.6716 47.965 67.2373 40.5288 70.4328L50.7612 75C61.1604 71.473 62 59.8516 62 56.3246V25.6352H51.2644ZM29.6884 34.6319C30.8335 34.6319 32.1193 34.8389 33.3718 35.121V51.7091C32.1193 51.9913 30.8335 52.2051 29.6884 52.2051C25.0005 52.2051 20.4555 50.7477 20.4555 43.2704C20.4555 35.7931 25.0005 34.6319 29.6884 34.6319Z" fill="black"/>
</svg>
