<svg width="80" height="80" viewBox="0 0 80 80" fill="none" xmlns="http://www.w3.org/2000/svg">
<path d="M79.9613 18.0987C79.9487 18.0624 79.9336 18.0269 79.9163 17.9925C79.8933 17.9253 79.8648 17.86 79.831 17.7972C79.805 17.7581 79.7759 17.7211 79.7442 17.6862C79.7088 17.6349 79.6701 17.5859 79.6283 17.5393C79.5913 17.505 79.5447 17.4768 79.5045 17.4456C79.4586 17.4072 79.4102 17.3717 79.3597 17.3393L63.8748 8.67997C63.6792 8.57026 63.4572 8.5125 63.2313 8.5125C63.0054 8.5125 62.7835 8.57026 62.5879 8.67997L47.0998 17.344C47.0501 17.3767 47.0028 17.4128 46.9582 17.4518C46.9144 17.4805 46.8724 17.5118 46.8327 17.5456C46.7906 17.5913 46.7519 17.6398 46.7169 17.6909C46.6896 17.7284 46.6542 17.7612 46.63 17.8018C46.5975 17.865 46.5695 17.9302 46.5464 17.9972C46.5335 18.0331 46.5126 18.0659 46.5013 18.1034C46.4718 18.2094 46.4567 18.3186 46.4563 18.4284V34.8722L33.5517 42.0893V9.91278C33.552 9.80245 33.5368 9.69259 33.5066 9.58622C33.497 9.54872 33.4745 9.51591 33.4616 9.47997C33.4391 9.41331 33.4112 9.34851 33.378 9.28622C33.3554 9.24559 33.3184 9.21278 33.2911 9.17372C33.2557 9.12243 33.217 9.07338 33.1753 9.02684C33.1351 8.9935 33.0933 8.96221 33.0498 8.93309C33.0047 8.8951 32.9574 8.85963 32.9082 8.82684L17.4185 0.167468C17.2229 0.0577578 17.0009 0 16.775 0C16.5491 0 16.3272 0.0577578 16.1316 0.167468L0.645075 8.82684C0.594796 8.85878 0.547435 8.89485 0.503513 8.93466C0.459149 8.96326 0.416703 8.99457 0.37643 9.02841C0.334823 9.07412 0.296653 9.12269 0.262215 9.17372C0.23326 9.21278 0.197869 9.24559 0.173739 9.28622C0.140775 9.34842 0.113328 9.41324 0.091698 9.47997C0.0741284 9.51398 0.0585533 9.54893 0.0450471 9.58466C0.0154526 9.69167 0.000311539 9.80197 4.77055e-06 9.91278V61.4284C-0.000611858 61.6484 0.0585596 61.8647 0.171542 62.0553C0.284523 62.246 0.447313 62.4043 0.643466 62.5143L31.61 79.8331C31.6789 79.8668 31.7504 79.895 31.824 79.9175C31.8578 79.93 31.8899 79.9487 31.9253 79.9581C32.1414 80.0143 32.3688 80.0143 32.5849 79.9581C32.6171 79.9503 32.6444 79.9331 32.6734 79.9237C32.751 79.9 32.8264 79.8697 32.8986 79.8331L63.8748 62.5143C64.071 62.4043 64.2337 62.246 64.3467 62.0553C64.4597 61.8647 64.5189 61.6484 64.5183 61.4284V44.9815L79.3565 36.6831C79.5538 36.5724 79.7174 36.4129 79.8304 36.2207C79.9435 36.0285 80.002 35.8107 79.9999 35.5893V18.4253C80.0008 18.3153 79.9879 18.2056 79.9613 18.0987ZM16.7734 2.70028L29.6732 9.91122L16.7718 17.1268L3.87364 9.91278L16.7734 2.70028ZM30.9698 12.0753V43.5315L23.4847 47.7175L18.0652 50.7487V19.2972L25.5502 15.1112L30.9698 12.0753ZM30.9698 76.5722L2.58028 60.7034V12.0815L7.99984 15.1097L15.4833 19.2972V52.919C15.4866 52.9663 15.493 53.0132 15.5026 53.0597C15.5064 53.1216 15.5151 53.1833 15.5283 53.244C15.5447 53.2925 15.5651 53.3395 15.5895 53.3847C15.6074 53.4385 15.63 53.4908 15.657 53.5409C15.6868 53.5833 15.719 53.624 15.7535 53.6628C15.7857 53.7089 15.8212 53.7527 15.8597 53.794C15.8967 53.8284 15.9434 53.8534 15.9836 53.8847C16.0275 53.9217 16.0737 53.9562 16.1219 53.9878L30.9521 62.1409L30.9698 76.5722ZM32.2567 59.9831L19.3778 52.9018L32.905 45.3378L47.7464 37.0393L60.6366 44.2472L51.1777 49.4909L32.2567 59.9831ZM61.9396 60.6972L33.5485 76.58V62.1565L54.5768 50.5003L61.9396 46.4143V60.6972ZM61.9396 42.0831L56.52 39.0628L49.035 34.8768V20.5925L54.4545 23.6237L61.9396 27.8128V42.0831ZM63.2265 25.6331L50.3251 18.419L63.2265 11.2065L76.1247 18.4175L63.2265 25.6331ZM64.5134 42.0831V27.8128L72.0146 23.6237L77.4325 20.5925V34.8722L64.5134 42.0831Z" fill="black"/>
</svg>
