<svg width="80" height="80" viewBox="0 0 80 80" fill="none" xmlns="http://www.w3.org/2000/svg">
<path d="M39.5375 64.9982C39.275 64.9982 39.0125 64.9232 38.775 64.7982L36.375 63.3732C36.0125 63.1732 36.1875 63.0982 36.3125 63.0607C36.7875 62.8982 36.8875 62.8607 37.4 62.5607C37.45 62.5357 37.525 62.5482 37.575 62.5732L39.425 63.6732C39.4875 63.7107 39.5875 63.7107 39.65 63.6732L46.875 59.4982C46.9375 59.4607 46.9875 59.3857 46.9875 59.2982V50.9607C46.9875 50.8732 46.95 50.7982 46.875 50.7607L39.65 46.5982C39.5875 46.5607 39.5 46.5607 39.425 46.5982L32.2 50.7607C32.125 50.7982 32.0875 50.8857 32.0875 50.9607V59.2982C32.0875 59.3732 32.1375 59.4482 32.2 59.4857L34.175 60.6232C35.25 61.1607 35.9125 60.5232 35.9125 59.8982V51.6607C35.9125 51.5482 36 51.4482 36.125 51.4482H37.0375C37.15 51.4482 37.25 51.5357 37.25 51.6607V59.8982C37.25 61.3357 36.475 62.1482 35.1125 62.1482C34.7 62.1482 34.3625 62.1482 33.45 61.6982L31.55 60.6107C31.0875 60.3357 30.7875 59.8357 30.7875 59.2982V50.9607C30.7875 50.4232 31.075 49.9107 31.55 49.6482L38.775 45.4732C39.2375 45.2107 39.8375 45.2107 40.2875 45.4732L47.5125 49.6482C47.975 49.9232 48.275 50.4232 48.275 50.9607V59.2982C48.275 59.8357 47.9875 60.3482 47.5125 60.6107L40.2875 64.7857C40.075 64.9232 39.8125 64.9982 39.5375 64.9982ZM45.375 56.7732C45.375 55.2107 44.325 54.7982 42.1 54.4982C39.85 54.1982 39.625 54.0482 39.625 53.5232C39.625 53.0857 39.8125 52.5107 41.475 52.5107C42.9625 52.5107 43.5125 52.8357 43.7375 53.8357C43.7625 53.9357 43.8375 53.9982 43.9375 53.9982H44.875C44.9375 53.9982 44.9875 53.9732 45.025 53.9357C45.0625 53.8857 45.0875 53.8357 45.075 53.7732C44.925 52.0482 43.7875 51.2482 41.475 51.2482C39.4125 51.2482 38.1875 52.1232 38.1875 53.5732C38.1875 55.1607 39.4125 55.5857 41.3875 55.7857C43.75 56.0232 43.9375 56.3607 43.9375 56.8232C43.9375 57.6357 43.2875 57.9732 41.7625 57.9732C39.85 57.9732 39.425 57.4982 39.2875 56.5482C39.275 56.4482 39.1875 56.3732 39.075 56.3732H38.1375C38.025 56.3732 37.925 56.4607 37.925 56.5857C37.925 57.7982 38.5875 59.2482 41.75 59.2482C44.0625 59.2482 45.375 58.3482 45.375 56.7732ZM52.1875 50.5107C52.1875 51.2732 51.5625 51.8982 50.8 51.8982C50.0375 51.8982 49.4125 51.2732 49.4125 50.5107C49.4125 49.7232 50.0625 49.1232 50.8 49.1232C51.55 49.1107 52.1875 49.7232 52.1875 50.5107ZM51.9625 50.5107C51.9625 49.8607 51.4375 49.3482 50.7875 49.3482C50.15 49.3482 49.625 49.8607 49.625 50.5107C49.625 51.1607 50.15 51.6857 50.7875 51.6857C51.4375 51.6732 51.9625 51.1482 51.9625 50.5107ZM51.4 51.2857H51.075C51.0625 51.2107 51.0125 50.8107 51.0125 50.7982C50.9875 50.7107 50.9625 50.6607 50.85 50.6607H50.575V51.2857H50.275V49.7232H50.8125C51 49.7232 51.3625 49.7232 51.3625 50.1357C51.3625 50.4232 51.175 50.4857 51.0625 50.5232C51.275 50.5357 51.2875 50.6732 51.325 50.8732C51.3375 50.9982 51.3625 51.2107 51.4 51.2857ZM51.05 50.1857C51.05 49.9732 50.9 49.9732 50.825 49.9732H50.575V50.4107H50.8125C51.0125 50.4107 51.05 50.2732 51.05 50.1857ZM17.1625 32.3732C17.1625 32.0357 16.9875 31.7357 16.7 31.5732L9.0375 27.1607C8.9125 27.0857 8.7625 27.0482 8.6125 27.0357H8.5375C8.3875 27.0357 8.25 27.0857 8.1125 27.1607L0.4625 31.5732C0.175 31.7357 0 32.0482 0 32.3732L0.0125 44.2482C0.0125 44.4107 0.1 44.5607 0.2375 44.6482C0.375 44.7357 0.55 44.7357 0.7 44.6482L5.25 42.0357C5.5375 41.8607 5.7125 41.5607 5.7125 41.2357V35.6857C5.7125 35.3607 5.8875 35.0482 6.175 34.8857L8.1125 33.7732C8.2625 33.6857 8.4125 33.6482 8.575 33.6482C8.7375 33.6482 8.9 33.6857 9.0375 33.7732L10.975 34.8857C11.2625 35.0482 11.4375 35.3607 11.4375 35.6857V41.2357C11.4375 41.5607 11.6125 41.8732 11.9 42.0357L16.45 44.6482C16.5875 44.7357 16.775 44.7357 16.9125 44.6482C17.05 44.5732 17.1375 44.4107 17.1375 44.2482L17.1625 32.3732ZM59.0625 19.4107V41.4607C59.0625 41.7857 58.8875 42.0982 58.6 42.2607L50.9375 46.6857C50.65 46.8482 50.3 46.8482 50.0125 46.6857L42.35 42.2607C42.0625 42.0982 41.8875 41.7857 41.8875 41.4607V32.6107C41.8875 32.2857 42.0625 31.9732 42.35 31.8107L50.0125 27.3857C50.3 27.2232 50.65 27.2232 50.9375 27.3857L52.85 28.4857C53.0625 28.6107 53.3375 28.4482 53.3375 28.2107V16.4607C53.3375 16.1107 53.7125 15.8857 54.025 16.0607L58.5875 18.6107C58.875 18.7607 59.0625 19.0732 59.0625 19.4107ZM53.3125 35.5232C53.3125 35.4357 53.2625 35.3607 53.2 35.3232L50.575 33.7982C50.5 33.7607 50.4125 33.7607 50.3375 33.7982L47.7125 35.3232C47.6375 35.3607 47.6 35.4357 47.6 35.5232V38.5607C47.6 38.6482 47.65 38.7232 47.7125 38.7607L50.3375 40.2732C50.4125 40.3107 50.5 40.3107 50.5625 40.2732L53.1875 38.7607C53.2625 38.7232 53.3 38.6482 53.3 38.5607V35.5232H53.3125ZM79.5375 35.4357C79.825 35.2732 80 34.9607 80 34.6357V32.4982C80 32.1732 79.825 31.8607 79.5375 31.6982L71.925 27.2732C71.6375 27.1107 71.2875 27.1107 71 27.2732L63.3375 31.6982C63.05 31.8607 62.875 32.1732 62.875 32.4982V41.3482C62.875 41.6857 63.05 41.9857 63.3375 42.1482L70.95 46.4857C71.225 46.6482 71.575 46.6482 71.8625 46.4857L76.4625 43.9232C76.775 43.7482 76.775 43.2982 76.4625 43.1232L68.75 38.6982C68.6 38.6107 68.5125 38.4607 68.5125 38.2982V35.5232C68.5125 35.3607 68.6 35.2107 68.75 35.1232L71.15 33.7357C71.2875 33.6482 71.475 33.6482 71.6125 33.7357L74.0125 35.1232C74.15 35.2107 74.25 35.3607 74.25 35.5232V37.6982C74.25 38.0482 74.6375 38.2732 74.95 38.0982L79.5375 35.4357ZM69.875 35.8732C69.825 35.9107 69.7875 35.9607 69.7875 36.0232V37.7232C69.7875 37.7857 69.825 37.8482 69.875 37.8732L71.35 38.7232C71.4 38.7607 71.475 38.7607 71.525 38.7232L73 37.8732C73.05 37.8357 73.0875 37.7857 73.0875 37.7232V36.0232C73.0875 35.9607 73.05 35.8982 73 35.8732L71.525 35.0232C71.475 34.9857 71.4 34.9857 71.35 35.0232L69.875 35.8732ZM38.1 41.3107V32.5107C38.1 32.1857 37.9 31.8732 37.6125 31.7107L29.975 27.3107C29.7125 27.1607 29.35 27.1357 29.05 27.3107L21.4125 31.7107C21.125 31.8732 20.925 32.1732 20.925 32.5107V41.3107C20.925 41.6607 21.1625 41.9607 21.425 42.1107L29.075 46.5107C29.375 46.6857 29.725 46.6732 30 46.5107L37.625 42.1107C37.85 41.9857 38.0125 41.7732 38.075 41.5232C38.0875 41.4607 38.1 41.3857 38.1 41.3107ZM28.8125 25.6982L28.7125 25.7607H28.85L28.8125 25.6982ZM38.3375 41.9732L38.2875 41.8857V41.9982L38.3375 41.9732Z" fill="black"/>
</svg>
