<svg width="80" height="80" viewBox="0 0 80 80" fill="none" xmlns="http://www.w3.org/2000/svg">
<path d="M65.3438 26.6875C64.5 26.4062 63.6563 26.1406 62.8125 25.8906C62.9531 25.3125 63.0781 24.7344 63.2031 24.1562C65.125 14.8437 63.8594 7.35938 59.5937 4.89063C55.4844 2.53125 48.7812 4.98438 42 10.8906C41.3281 11.4688 40.6719 12.0781 40.0469 12.6875C39.625 12.2813 39.1875 11.875 38.75 11.4844C31.6406 5.17188 24.5156 2.51563 20.25 5C16.1563 7.375 14.9375 14.4219 16.6562 23.2344C16.8281 24.1094 17.0156 24.9687 17.2344 25.8437C16.2344 26.125 15.25 26.4375 14.3281 26.7656C5.98437 29.6562 0 34.2187 0 38.9375C0 43.8125 6.375 48.7031 15.0469 51.6719C15.75 51.9062 16.4531 52.1406 17.1719 52.3437C16.9375 53.2812 16.7344 54.2031 16.5469 55.1562C14.9063 63.8281 16.1875 70.7031 20.2813 73.0625C24.5 75.5 31.5937 73 38.5 66.9531C39.0469 66.4687 39.5937 65.9688 40.1406 65.4375C40.8281 66.1094 41.5469 66.75 42.2656 67.375C48.9531 73.125 55.5625 75.4531 59.6406 73.0938C63.8594 70.6563 65.2344 63.2656 63.4531 54.2656C63.3125 53.5781 63.1563 52.875 62.9844 52.1563C63.4844 52.0156 63.9688 51.8594 64.4531 51.7031C73.4688 48.7187 80 43.8906 80 38.9375C80 34.2031 73.8438 29.6094 65.3438 26.6875ZM44.2031 13.4219C50.0156 8.35938 55.4375 6.375 57.9063 7.79688C60.5469 9.3125 61.5625 15.4375 59.9062 23.4844C59.7969 24.0156 59.6875 24.5312 59.5469 25.0469C56.0781 24.2656 52.5625 23.7031 49.0312 23.3906C47 20.4844 44.7813 17.7031 42.375 15.0938C42.9844 14.5156 43.5781 13.9688 44.2031 13.4219ZM26.125 47.0469C26.9219 48.4062 27.7344 49.7656 28.5938 51.0937C26.1562 50.8281 23.7344 50.4375 21.3438 49.9219C22.0313 47.6719 22.8906 45.3437 23.8906 42.9687C24.6094 44.3437 25.3437 45.7031 26.125 47.0469ZM21.3906 28.25C23.6406 27.75 26.0313 27.3437 28.5156 27.0312C27.6875 28.3281 26.875 29.6562 26.1094 31C25.3438 32.3281 24.5937 33.6875 23.8906 35.0625C22.9062 32.7344 22.0781 30.4531 21.3906 28.25ZM25.6719 39.0156C26.7031 36.8594 27.8281 34.75 29.0156 32.6719C30.2031 30.5937 31.4844 28.5781 32.8281 26.5938C35.1719 26.4219 37.5625 26.3281 40 26.3281C42.4375 26.3281 44.8437 26.4219 47.1719 26.5938C48.5 28.5625 49.7656 30.5781 50.9688 32.6406C52.1719 34.7031 53.2969 36.8125 54.3594 38.9531C53.3125 41.1094 52.1875 43.2344 50.9844 45.3281C49.7969 47.4062 48.5313 49.4219 47.2031 51.4219C44.875 51.5937 42.4531 51.6719 40 51.6719C37.5469 51.6719 35.1719 51.5938 32.875 51.4531C31.5156 49.4688 30.2344 47.4375 29.0313 45.3594C27.8281 43.2813 26.7188 41.1719 25.6719 39.0156ZM53.8906 47.0156C54.6875 45.6406 55.4375 44.25 56.1719 42.8438C57.1719 45.1094 58.0469 47.4062 58.8125 49.7656C56.3906 50.3125 53.9375 50.7344 51.4687 51.0156C52.3125 49.7031 53.1094 48.3594 53.8906 47.0156ZM56.1406 35.0625C55.4062 33.6875 54.6562 32.3125 53.875 30.9688C53.1094 29.6406 52.3125 28.3281 51.4844 27.0312C54 27.3437 56.4062 27.7656 58.6562 28.2812C57.9375 30.5937 57.0937 32.8437 56.1406 35.0625ZM40.0313 17.4844C41.6719 19.2656 43.2187 21.1406 44.6562 23.0781C41.5625 22.9375 38.4531 22.9375 35.3594 23.0781C36.8906 21.0625 38.4688 19.1875 40.0313 17.4844ZM21.9062 7.90625C24.5312 6.375 30.3594 8.5625 36.5 14C36.8906 14.3438 37.2812 14.7188 37.6875 15.0938C35.2656 17.7031 33.0313 20.4844 30.9844 23.3906C27.4531 23.7031 23.9531 24.25 20.4844 25.0156C20.2813 24.2187 20.1094 23.4063 19.9375 22.5938C18.4687 15.0312 19.4375 9.32813 21.9062 7.90625ZM18.0781 49.0938C17.4219 48.9062 16.7813 48.7031 16.1406 48.4844C12.8125 47.4375 9.03125 45.7812 6.29687 43.6094C4.71875 42.5156 3.65625 40.8281 3.35938 38.9375C3.35938 36.0781 8.29687 32.4219 15.4219 29.9375C16.3125 29.625 17.2187 29.3437 18.125 29.0781C19.1875 32.4687 20.4688 35.7969 21.9531 39.0156C20.4531 42.2812 19.1562 45.6562 18.0781 49.0938ZM36.2969 64.4062C33.7188 66.7656 30.7344 68.6406 27.4844 69.9219C25.75 70.75 23.75 70.8281 21.9688 70.125C19.4844 68.6875 18.4531 63.1719 19.8594 55.75C20.0312 54.875 20.2188 54 20.4375 53.1406C23.9375 53.8906 27.4687 54.4062 31.0469 54.6719C33.1094 57.5937 35.375 60.3906 37.7969 63.0156C37.2969 63.5 36.7969 63.9688 36.2969 64.4062ZM40.125 60.6094C38.5312 58.8906 36.9375 56.9844 35.3906 54.9375C36.8906 55 38.4375 55.0312 40 55.0312C41.6094 55.0312 43.1875 55 44.75 54.9219C43.3125 56.9062 41.7656 58.7969 40.125 60.6094ZM60.5469 65.2969C60.4063 67.2031 59.4688 68.9844 57.9688 70.1875C55.4844 71.625 50.1875 69.75 44.4688 64.8437C43.8125 64.2812 43.1562 63.6719 42.4844 63.0469C44.875 60.4062 47.0781 57.6094 49.0781 54.6719C52.6563 54.375 56.2187 53.8281 59.7344 53.0312C59.8906 53.6719 60.0312 54.3125 60.1562 54.9375C60.9219 58.3125 61.0469 61.8281 60.5469 65.2969ZM63.3906 48.5C62.9531 48.6406 62.5156 48.7812 62.0625 48.9062C60.9688 45.5 59.625 42.1719 58.0781 38.9375C59.5781 35.75 60.8438 32.4687 61.9063 29.1094C62.7188 29.3437 63.5 29.5937 64.25 29.8437C71.5313 32.3437 76.6406 36.0625 76.6406 38.9062C76.6406 41.9687 71.1875 45.9219 63.3906 48.5ZM40 46.1562C43.9531 46.1562 47.1562 42.9531 47.1562 39C47.1562 35.0469 43.9531 31.8437 40 31.8437C36.0469 31.8437 32.8437 35.0469 32.8437 39C32.8437 42.9531 36.0469 46.1562 40 46.1562Z" fill="black"/>
</svg>
