<svg width="80" height="80" viewBox="0 0 80 80" fill="none" xmlns="http://www.w3.org/2000/svg">
<path fill-rule="evenodd" clip-rule="evenodd" d="M36.5696 3.53382C47.1434 -3.1765 61.8519 -0.0585711 69.24 10.583C72.8324 15.5311 74.2558 21.7669 73.1035 27.8672C72.6291 30.714 71.5446 33.4252 69.9178 35.8654C72.2902 40.2711 73.0357 45.3547 72.1546 50.3027C71.1379 56.1997 67.6133 61.4188 62.5297 64.6045L43.8899 76.4662C33.3161 83.1765 18.6754 80.0586 11.2195 69.417C7.69486 64.4689 6.27146 58.2331 7.35595 52.2006C7.83042 49.3538 8.91491 46.6425 10.5417 44.2024C8.16932 39.7967 7.42373 34.7131 8.30489 29.7651C9.3216 23.8681 12.8462 18.649 17.9298 15.4633L36.5696 3.53382ZM18.8788 64.5367C22.4034 69.6203 28.707 71.9927 34.7395 70.4337C36.0951 70.027 37.383 69.4848 38.5352 68.7392L57.175 56.8775C60.2252 54.9796 62.3942 51.7939 63.0042 48.2693C63.6142 44.6091 62.8008 40.8812 60.6318 37.8988C57.1072 32.8152 50.8036 30.4429 44.7711 32.0019C43.4155 32.4086 42.1276 32.9508 40.9754 33.6964L33.8584 38.2377C33.5195 38.4411 33.1128 38.5766 32.7061 38.7122L32.7061 38.7122C30.876 39.1867 28.9781 38.5088 27.8936 36.9499C27.2836 36.0687 27.0125 34.9165 27.2158 33.832C27.4192 32.7475 28.0292 31.8663 28.9781 31.2563L47.5501 19.3946C47.889 19.1913 48.2957 19.0557 48.7024 18.9201C50.5325 18.4457 52.4303 19.1235 53.5148 20.6824C54.0571 21.4958 54.3282 22.5125 54.2604 23.4615L54.1927 24.1393L54.8705 24.3426C57.5139 25.156 59.954 26.376 62.1908 28.0028L63.1397 28.6806L63.4787 27.5961C63.682 26.9861 63.8176 26.4438 63.9531 25.8338C64.5631 22.1736 63.7498 18.4457 61.5808 15.4633C58.0562 10.3797 51.7525 8.00739 45.72 9.56636C44.3644 9.97304 43.0766 10.5153 41.9243 11.2609L23.2845 23.1226C20.2344 25.0204 18.0654 28.2061 17.4554 31.7307C16.7775 35.3909 17.6587 39.1189 19.7599 42.1012C23.2845 47.1848 29.5882 49.5571 35.6207 47.9982C36.9763 47.6593 38.2641 47.117 39.4164 46.3714L46.5334 41.8301C46.8723 41.6268 47.279 41.4912 47.6857 41.3556C49.5158 40.8812 51.4136 41.559 52.4981 43.118C53.1082 43.9991 53.3793 45.1514 53.1759 46.2359C52.9726 47.3204 52.3626 48.2015 51.4136 48.8116L32.8416 60.6732C32.5028 60.8766 32.0961 61.0121 31.6894 61.1477L31.6894 61.1477C29.8593 61.6222 27.9614 60.8766 26.8769 59.3176C26.3347 58.5042 26.0635 57.4875 26.1313 56.5386L26.1991 55.8608L25.5213 55.6574C22.8778 54.8441 20.4377 53.624 18.2009 51.9973L17.252 51.3194L16.9131 52.4039C16.8453 52.709 16.7775 52.9971 16.7098 53.2851C16.642 53.5732 16.5742 53.8612 16.5064 54.1663C15.8964 57.8264 16.7098 61.5544 18.8788 64.5367Z" fill="black"/>
</svg>
